<svg viewBox="0 0 24 24" fill="none" xmlns="http://www.w3.org/2000/svg">
  <g transform="translate(3.5, 3.5)">
    <path
      d="M12.4444 7.11111V5.33333C12.4444 2.87873 10.4546 0.888885 8 0.888885C5.5454 0.888885 3.55555 2.87873 3.55555 5.33333V7.11111M8 11.1111V12.8889M5.15555 16.8889H10.8444C12.338 16.8889 13.0846 16.8889 13.6551 16.5982C14.1569 16.3426 14.5648 15.9347 14.8204 15.4329C15.1111 14.8624 15.1111 14.1157 15.1111 12.6222V11.3778C15.1111 9.88426 15.1111 9.1376 14.8204 8.56711C14.5648 8.06533 14.1569 7.65742 13.6551 7.40177C13.0846 7.11111 12.338 7.11111 10.8444 7.11111H5.15555C3.66208 7.11111 2.91534 7.11111 2.34491 7.40177C1.84314 7.65742 1.4352 8.06533 1.17953 8.56711C0.888886 9.1376 0.888885 9.88426 0.888885 11.3778V12.6222C0.888885 14.1157 0.888886 14.8624 1.17953 15.4329C1.4352 15.9347 1.84314 16.3426 2.34491 16.5982C2.91534 16.8889 3.66208 16.8889 5.15555 16.8889Z"
      stroke="currentColor"
      stroke-width="1.77778"
      stroke-linecap="round"
      stroke-linejoin="round"
    />
  </g>
</svg>